<?xml version="1.0" encoding="UTF-8" standalone="no"?>
<!-- Created with Inkscape (http://www.inkscape.org/) -->

<svg
   width="500"
   height="499.99997"
   viewBox="0 0 130.20833 130.20833"
   version="1.1"
   id="svg1"
   xml:space="preserve"
   xmlns="http://www.w3.org/2000/svg"
   xmlns:svg="http://www.w3.org/2000/svg"><defs
     id="defs1" /><g
     id="layer6"
     style="display:inline"
     transform="translate(-1695.5528)" /><g
     id="layer5"
     style="display:inline"
     transform="translate(-1695.5528)" /><g
     id="layer7"
     style="display:inline"
     transform="translate(-1695.5528)"><g
       id="use14"
       transform="matrix(0.26041772,0,0,0.26041772,1695.5525,-2.6490992e-4)"><path
         d="m 96.611023,147.5118 c -13.358677,5.06375 -20.308855,28.14468 -21.87144,40.85744 -3.812825,0 -7.729144,-0.0149 -11.496989,0.0229 -0.467145,0.91373 -0.873959,2.16719 -1.260376,3.54004 1.818618,0.47773 3.442715,1.65412 5.007426,2.66876 2.281903,17.22049 4.042436,34.52617 4.647828,51.89616 1.128629,25.11576 -1.011213,50.25968 -4.386902,75.13173 -0.140601,0.96711 -0.002,2.25303 -1.034038,2.78677 -1.40854,0.53745 -4.483723,1.00539 -6.00179,1.20646 0.447489,1.47733 1.341549,2.86365 1.969401,3.98305 2.513734,0.0454 4.396566,1.06863 4.396566,1.06863 0,0 10.300901,32.08232 34.392801,51.35447 23.46071,18.76735 14.60838,25.08855 35.67759,74.1272 6.64729,8.38802 29.18338,29.22895 43.4372,39.08488 9.41418,2.87778 19.74957,5.35478 31.21185,4.63307 19.64548,0.053 -5.8856,-0.8393 38.70036,-0.84686 44.58586,0.008 19.05538,0.90031 38.70087,0.84686 11.46228,0.72187 21.79258,-1.7553 31.20676,-4.63307 14.25382,-9.85593 36.78984,-30.69686 43.4372,-39.08488 21.06921,-49.03864 12.22189,-55.35985 35.68268,-74.1272 24.09183,-19.27215 34.3872,-51.35447 34.3872,-51.35447 0,0 1.88851,-1.02425 4.40216,-1.06863 0.62816,-1.11939 1.51662,-2.50572 1.96432,-3.98305 -1.51812,-0.20107 -4.59327,-0.6691 -6.00179,-1.20646 -1.03233,-0.53366 -0.88925,-1.81966 -1.02946,-2.78677 -3.37568,-24.87206 -5.51554,-50.01597 -4.3869,-75.13173 0.60547,-17.36999 2.36603,-34.67567 4.64782,-51.89616 1.56472,-1.01464 3.18423,-2.19141 5.00285,-2.66876 -0.38627,-1.37285 -0.79347,-2.62631 -1.26037,-3.54004 -3.76786,-0.0378 -7.68417,-0.0229 -11.49699,-0.0229 -1.5626,-12.71276 -8.50775,-35.79369 -21.86636,-40.85744 2.53242,10.37318 3.59861,13.05267 4.776,19.70978 1.23567,6.98639 3.48214,15.08892 2.38292,21.14766 -4.96089,22.06625 -4.64832,45.42578 -5.57353,68.01148 -0.22601,30.5264 1.02244,60.93944 5.74595,73.12317 -5.11992,21.17435 -40.12606,41.99279 -48.4497,60.37953 -10.46471,23.1167 -13.22332,44.44653 -19.64112,52.61536 -8.51526,10.58779 -19.85491,23.49246 -32.03379,28.35083 -8.83183,0.2124 -19.60258,-2.01124 -28.32133,-3.89455 -10.92938,0.0302 -21.22719,0.16728 -32.27539,0.18768 -11.04828,-0.0226 -21.34558,-0.15292 -32.27488,-0.18768 -8.71882,1.88331 -19.49001,4.10712 -28.32184,3.89455 -12.17895,-4.85837 -23.51854,-17.76304 -32.03379,-28.35083 -6.41781,-8.16883 -9.17588,-29.49866 -19.64061,-52.61536 -8.32356,-18.38674 -43.334874,-39.20518 -48.454793,-60.37953 4.723531,-12.18373 5.977504,-42.59677 5.751038,-73.12317 -0.925224,-22.5857 -0.617573,-45.94523 -5.578614,-68.01148 -1.099219,-6.05874 1.147238,-14.16127 2.382915,-21.14766 1.177378,-6.65711 2.248604,-9.3366 4.781087,-19.70978 z m 343.357847,48.71674 v 0.004 c -1.02399,-0.0975 -3.00555,0.99016 -3.83046,1.52639 -2.83924,21.61625 -3.68345,42.87187 -3.5848,64.6932 0.0152,19.53111 0.96476,38.46617 3.57005,57.7947 1.14403,0.34242 3.38499,1.10553 4.59391,0.88653 2.0729,-0.5072 2.96503,-2.5618 4.3574,-3.96881 0.2381,-1.98627 0.4753,-3.97106 0.66427,-5.96262 0.0454,-0.47017 0.23642,-1.04891 -0.31993,-0.53203 -2.3166,1.26606 -2.89092,0.86451 -5.34719,0.48218 -0.65537,-11.62343 -1.00354,-23.2594 -1.18662,-34.89939 -0.30766,-22.48373 -0.35499,-44.99716 1.10321,-67.44589 -0.0884,-0.57221 0.0302,-1.27233 0.6546,-1.49637 2.0689,-0.64403 2.3496,-1.09776 4.37215,-0.0381 -0.51099,-2.75434 -1.06524,-5.52029 -2.09757,-8.13395 -0.35075,-1.42253 -1.48756,-2.63826 -2.94902,-2.90985 z m -379.941302,0.004 c -1.461533,0.27137 -2.598865,1.48733 -2.949524,2.90986 -1.032331,2.61365 -1.581723,5.37968 -2.092489,8.13395 2.022554,-1.06302 2.29876,-0.61009 4.367574,0.0376 0.624368,0.22374 0.743037,0.92452 0.654602,1.49688 1.4585,22.44873 1.415513,44.96217 1.107788,67.44589 -0.182933,11.63992 -0.531341,23.27595 -1.186625,34.89939 -2.456214,0.38174 -3.035754,0.78364 -5.352275,-0.48218 -0.557104,-0.51703 -0.362207,0.0603 -0.315348,0.53202 0.188976,1.99164 0.422087,3.97643 0.660197,5.96263 1.392289,1.40704 2.289082,3.46119 4.361979,3.9683 1.208915,0.21922 3.449861,-0.5433 4.593913,-0.88602 2.605279,-19.32845 3.553641,-38.2641 3.570048,-57.79521 0.09823,-21.82134 -0.749767,-43.07686 -3.589376,-64.6932 -0.824909,-0.53593 -2.80696,-1.62369 -3.830973,-1.52588 z m 383.895872,13.97197 c -0.35544,0.008 -0.73088,0.034 -1.00504,0.087 -0.78516,12.35243 -1.08644,24.72983 -1.16679,37.10531 -0.10357,20.21103 0.15259,40.42858 1.16679,60.61656 0.93451,0.0983 2.53934,-0.03 3.22011,-0.74361 1.47421,-1.95996 0.96504,-4.61832 1.89056,-6.79983 0.52308,-1.9667 2.64775,-1.18052 2.85594,-1.90074 0.53441,-15.38856 2.8913,-30.63382 3.8503,-45.99253 0.65158,-11.20368 0.83336,-22.62835 -2.0284,-33.5556 -1.15531,-1.0993 -2.97414,-0.40562 -4.23482,-1.31429 -1.20823,-0.98849 -1.03327,-2.74928 -1.3738,-4.13107 -0.223,-1.3433 -0.71714,-3.10602 -2.28933,-3.34828 v 0.004 c -0.19465,-0.0226 -0.53009,-0.034 -0.88552,-0.0264 z m -387.850442,0.002 v 5e-4 c -0.355475,-0.008 -0.690873,0.003 -0.885518,0.0285 v -0.004 c -1.572043,0.24189 -2.066549,2.00499 -2.289836,3.34829 -0.340156,1.38177 -0.165135,3.14264 -1.373291,4.13106 -1.260755,0.90859 -3.0795,0.21564 -4.234823,1.3148 -2.861754,10.92725 -2.674661,22.35141 -2.023315,33.55509 0.959013,15.35871 3.310649,30.60447 3.845215,45.99304 0.207874,0.72038 2.337278,-0.0683 2.860514,1.90023 0.925588,2.18153 0.416855,4.83938 1.891073,6.79932 0.681071,0.71509 2.280511,0.8415 3.215027,0.74361 1.014042,-20.18798 1.270725,-40.4045 1.166788,-60.61554 -0.08012,-12.37547 -0.381632,-24.75287 -1.166788,-37.10531 -0.27401,-0.053 -0.649571,-0.0813 -1.005046,-0.0895 z"
         style="display:inline;fill:#757175;fill-opacity:1;stroke-width:0.531968"
         id="path7" /><path
         d="m 247.11558,0.00101725 5.1e-4,5.0863e-4 C 218.14278,1.5707672 189.08886,8.9913305 164.18101,24.186707 148.79807,33.626761 135.03805,46.60575 127.2049,63.073222 c -8.93073,18.146575 -12.24261,38.301698 -15.86813,58.007308 -3.30184,18.02078 -8.21934,35.73136 -10.63995,53.9093 -0.732472,5.25879 -0.698367,10.62733 0.41809,15.83048 2.08212,11.70034 3.03919,23.40574 3.64125,35.27781 0.79741,16.7691 1.10103,33.68679 0.96792,50.53457 -0.22904,15.85272 -0.99668,31.5696 -3.74959,47.22087 -0.61455,2.6514 -0.9827,5.52779 0.28941,8.05816 1.62767,3.37139 4.10062,6.25537 6.3975,9.18478 7.2905,8.69623 16.06172,15.9746 23.8505,24.20196 7.26692,7.40274 13.73473,15.83345 17.46063,25.59967 5.61247,13.23829 8.83682,27.2503 14.09811,40.65043 3.20705,6.72682 8.6213,12.01464 13.62203,17.40926 4.19879,4.23985 8.94875,7.94608 14.17541,10.8368 10.94474,-0.38702 21.39539,-4.00792 32.35321,-3.685 13.02589,0.0226 26.05129,0.0845 39.07725,0.0376 7.47538,0.008 14.96108,0.0677 22.22596,0.62561 7.57162,0.78651 14.99095,2.88156 22.6359,3.06803 10.7591,-6.1952 19.49947,-15.45192 26.33311,-25.72021 4.07739,-6.91679 5.4907,-14.94157 8.16854,-22.4233 2.20405,-6.85427 4.32243,-13.54532 7.10958,-20.18891 2.19226,-5.24639 5.01935,-10.84226 8.55357,-15.62144 5.84076,-8.02068 13.31113,-14.64268 20.3425,-21.58152 6.87408,-6.69152 13.80982,-13.53486 18.83088,-21.77582 1.43627,-2.80786 1.21474,-6.05186 0.44962,-9.01235 -3.61804,-19.57023 -3.49811,-39.55721 -3.71755,-59.54742 0.11415,-20.47399 0.77303,-40.90379 2.88849,-61.1674 1.12614,-9.67853 3.90555,-19.4466 2.01467,-29.22007 -2.70097,-19.00339 -7.96008,-37.51681 -11.18876,-56.42548 C 384.53224,98.526411 381.0389,79.557455 372.51638,62.464905 366.66262,50.715147 358.00719,40.449977 347.62929,32.436625 327.50832,16.545127 302.7941,7.4876933 277.77913,2.8579712 267.67222,0.98878906 257.39808,-0.0348095 247.11558,0.00101725 Z"
         style="display:inline;fill:#2e54a3;stroke-width:0.531968"
         id="path12" /></g></g><g
     id="layer4"
     transform="translate(-1695.5528)" /><g
     id="layer3"
     transform="translate(-1695.5528)" /><g
     id="layer2"
     style="display:inline"
     transform="translate(-1695.5528)" /><g
     id="layer1"
     transform="translate(-1695.5528)" /></svg>
